<svg width="38" height="38" viewBox="0 0 38 38" fill="none" xmlns="http://www.w3.org/2000/svg">
<g clip-path="url(#clip0_577_1511)">
<path fill-rule="evenodd" clip-rule="evenodd" d="M20.5224 7.99503C23.9818 11.4544 23.9818 17.0632 20.5224 20.5225C17.0629 23.9819 11.4541 23.9819 7.99465 20.5225C4.53522 17.0632 4.53522 11.4544 7.99465 7.99503C11.4541 4.53565 17.0629 4.53565 20.5224 7.99503ZM22.6111 21.1981C26.1637 16.9322 25.9388 10.583 21.9366 6.58083C17.6961 2.34041 10.8209 2.34041 6.58043 6.58083C2.33994 10.8212 2.33994 17.6963 6.58043 21.9367C10.5823 25.9386 16.9309 26.1637 21.1968 22.6122L21.2294 22.6447L30.0043 31.4195L30.7114 32.1267L32.1257 30.7124L31.4186 30.0053L22.6436 21.2305L22.6111 21.1981Z" fill="#FF0000"/>
</g>
<defs>
<clipPath id="clip0_577_1511">
<rect width="38" height="38" fill="white"/>
</clipPath>
</defs>
</svg>
